<?xml version="1.0" encoding="utf-8"?>
<!-- Generator: Adobe Illustrator 21.0.0, SVG Export Plug-In . SVG Version: 6.00 Build 0)  -->
<svg version="1.1" id="图层_1" xmlns="http://www.w3.org/2000/svg" xmlns:xlink="http://www.w3.org/1999/xlink" x="0px" y="0px"
	 viewBox="0 0 200 200" style="enable-background:new 0 0 200 200;" xml:space="preserve">
<style type="text/css">
	.st0{fill:#FFA446;}
	.st1{fill:#FFFFFF;}
</style>
<circle class="st0" cx="100.2" cy="100" r="99.8"/>
<g>
	<path class="st1" d="M90.4,101.8h54.6c-0.7,12.8-5.3,23.3-13.8,31.5c-8.5,8.2-18.9,12.3-31.3,12.3c-12.7,0-23.3-4.4-31.8-13.3
		c-8.6-8.9-12.8-19.8-12.8-33c0-6.2,1.2-12,3.5-17.5C61.1,76.4,64.5,71.5,69,67c4.3-4.3,9.2-7.5,14.4-9.6c5.3-2.1,11.1-3.1,17.6-3.1
		c8.5,0,16.2,2.1,23,6.2c6.8,4.1,12.2,10,16.3,17.7h-10.6c-4.1-5.3-8.6-9.2-13.3-11.7c-4.7-2.5-10-3.8-15.8-3.8
		c-10.1,0-18.6,3.6-25.6,10.8c-7,7.2-10.5,15.9-10.5,26.1c0,10.8,3.5,19.8,10.4,27c7,7.2,15.6,10.8,25.8,10.8c8,0,15.3-2.6,21.6-7.7
		c6.4-5.2,10.5-11.8,12.5-20H90.4V101.8z"/>
</g>
<path class="st1" d="M182.3,78l-0.2-0.7h-7.3l0.4,1.3c2,7,3,14.2,3,21.4c0,43-35,78-78,78c-43,0-78-35-78-78c0-7.2,1-14.4,3-21.4
	l0.4-1.3h-7.3L18.1,78c-1.9,7.2-2.9,14.6-2.9,22c0,46.9,38.1,85,85,85s85-38.1,85-85C185.2,92.6,184.2,85.2,182.3,78z"/>
</svg>
